<?xml version="1.0" encoding="UTF-8"?>
<svg version="1.1" xmlns="http://www.w3.org/2000/svg" width="225" height="225">
<path d="M0 0 C43.89 0 87.78 0 133 0 C133 20.13 133 40.26 133 61 C89.11 61 45.22 61 0 61 C0 40.87 0 20.74 0 0 Z M64.2109375 17.78515625 C60.01817244 20.67158648 60.01817244 20.67158648 58.0625 25.3125 C58.041875 26.199375 58.02125 27.08625 58 28 C62.10457614 30.98514628 64.97745369 31.2954439 70 31 C70 33.64 70 36.28 70 39 C69.38511719 38.7834375 68.77023438 38.566875 68.13671875 38.34375 C67.32847656 38.0653125 66.52023438 37.786875 65.6875 37.5 C64.88699219 37.2215625 64.08648437 36.943125 63.26171875 36.65625 C60.91230578 35.86066893 60.91230578 35.86066893 58 36 C59.40354413 39.50886032 60.64365823 40.4267148 64 42 C64.66 42.99 65.32 43.98 66 45 C66.99 44.67 67.98 44.34 69 44 C69.33 43.34 69.66 42.68 70 42 C70.969375 41.566875 71.93875 41.13375 72.9375 40.6875 C76.10813309 39.25774452 76.10813309 39.25774452 77.5625 36.5625 C78.2793391 33.9949426 78.2793391 33.9949426 76.8515625 31.98046875 C74.65368713 29.62957674 72.82233723 28.84448627 69.8125 27.75 C68.91144531 27.41484375 68.01039062 27.0796875 67.08203125 26.734375 C66.39496094 26.49203125 65.70789063 26.2496875 65 26 C65 25.01 65 24.02 65 23 C68.3 23.33 71.6 23.66 75 24 C75 23.01 75 22.02 75 21 C69.78480174 17.75179123 69.78480174 17.75179123 64.2109375 17.78515625 Z " fill="#B8E3A2" transform="translate(46,82)"/>
<path d="M0 0 C43.89 0 87.78 0 133 0 C133 20.13 133 40.26 133 61 C89.11 61 45.22 61 0 61 C0 40.87 0 20.74 0 0 Z M15 6 C14.34 8.31 13.68 10.62 13 13 C11.02 13.66 9.04 14.32 7 15 C7 25.23 7 35.46 7 46 C8.98 46.66 10.96 47.32 13 48 C13.66 50.31 14.32 52.62 15 55 C48.66 55 82.32 55 117 55 C117.99 52.69 118.98 50.38 120 48 C121.65 47.34 123.3 46.68 125 46 C125 35.77 125 25.54 125 15 C123.02 14.01 121.04 13.02 119 12 C118.01 9.03 118.01 9.03 117 6 C83.34 6 49.68 6 15 6 Z " fill="#57844B" transform="translate(46,82)"/>
<path d="M0 0 C14.19 0 28.38 0 43 0 C43 0.99 43 1.98 43 3 C40.36740403 5.41914224 38.40571201 6.86476266 35 8 C33.89831016 9.69769234 33.89831016 9.69769234 33 12 C32.46375 13.051875 31.9275 14.10375 31.375 15.1875 C29.18336578 20.4971293 28.99968751 25.3248348 31.01953125 30.7265625 C33.56780708 36.1336922 33.56780708 36.1336922 38 40 C39.3125 44.375 39.3125 44.375 38 47 C25.46 47 12.92 47 0 47 C-0.99 45.02 -1.98 43.04 -3 41 C-4.98 40.34 -6.96 39.68 -9 39 C-9 28.77 -9 18.54 -9 8 C-6.03 7.01 -3.06 6.02 0 5 C0 3.35 0 1.7 0 0 Z " fill="#B9E3A3" transform="translate(62,89)"/>
<path d="M0 0 C5.14338337 2.9958329 8.76038445 7.90615335 10.625 13.5 C11.32893296 20.64318858 11.00739913 26.62681407 6.625 32.5 C1.71072596 37.84263691 -2.88224867 40.09251235 -10.125 40.9375 C-16.51391636 40.76549071 -22.31620698 37.50600345 -26.8125 33.125 C-30.49462133 26.93903616 -32.48760797 21.68250258 -31.375 14.5 C-29.206553 8.00631732 -25.38295439 3.6275775 -19.8125 -0.3125 C-13.43253074 -2.51648938 -6.27761071 -2.71627386 0 0 Z M-12.1640625 6.28515625 C-16.35682756 9.17158648 -16.35682756 9.17158648 -18.3125 13.8125 C-18.333125 14.699375 -18.35375 15.58625 -18.375 16.5 C-14.27042386 19.48514628 -11.39754631 19.7954439 -6.375 19.5 C-6.375 22.14 -6.375 24.78 -6.375 27.5 C-6.98988281 27.2834375 -7.60476562 27.066875 -8.23828125 26.84375 C-9.04652344 26.5653125 -9.85476562 26.286875 -10.6875 26 C-11.48800781 25.7215625 -12.28851563 25.443125 -13.11328125 25.15625 C-15.46269422 24.36066893 -15.46269422 24.36066893 -18.375 24.5 C-16.97145587 28.00886032 -15.73134177 28.9267148 -12.375 30.5 C-11.715 31.49 -11.055 32.48 -10.375 33.5 C-9.385 33.17 -8.395 32.84 -7.375 32.5 C-7.045 31.84 -6.715 31.18 -6.375 30.5 C-5.405625 30.066875 -4.43625 29.63375 -3.4375 29.1875 C-0.26686691 27.75774452 -0.26686691 27.75774452 1.1875 25.0625 C1.9043391 22.4949426 1.9043391 22.4949426 0.4765625 20.48046875 C-1.72131287 18.12957674 -3.55266277 17.34448627 -6.5625 16.25 C-7.46355469 15.91484375 -8.36460938 15.5796875 -9.29296875 15.234375 C-9.98003906 14.99203125 -10.66710937 14.7496875 -11.375 14.5 C-11.375 13.51 -11.375 12.52 -11.375 11.5 C-8.075 11.83 -4.775 12.16 -1.375 12.5 C-1.375 11.51 -1.375 10.52 -1.375 9.5 C-6.59019826 6.25179123 -6.59019826 6.25179123 -12.1640625 6.28515625 Z " fill="#598541" transform="translate(122.375,93.5)"/>
<path d="M0 0 C43.89 0 87.78 0 133 0 C133 20.13 133 40.26 133 61 C129.04 61 125.08 61 121 61 C121 60.67 121 60.34 121 60 C124.3 60 127.6 60 131 60 C130.67 45.48 130.34 30.96 130 16 C126.45042562 19.54957438 126.60164004 20.37013434 126.48828125 25.19921875 C126.43510742 27.01196289 126.43510742 27.01196289 126.38085938 28.86132812 C126.35830078 30.12396484 126.33574219 31.38660156 126.3125 32.6875 C126.27833984 33.96173828 126.24417969 35.23597656 126.20898438 36.54882812 C126.12639216 39.69913103 126.05727665 42.84915157 126 46 C125.67 46 125.34 46 125 46 C125 35.77 125 25.54 125 15 C123.35 14.67 121.7 14.34 120 14 C118.1875 12.1875 118.1875 12.1875 117 10 C117 8.68 117 7.36 117 6 C116.04109863 6.01047363 115.08219727 6.02094727 114.09423828 6.03173828 C110.54219281 6.06789328 106.99016366 6.09088393 103.43798828 6.10986328 C101.89954902 6.11993118 100.36112893 6.13358646 98.82275391 6.15087891 C96.61355867 6.17509317 94.40461605 6.18647491 92.1953125 6.1953125 C91.50567413 6.20563507 90.81603577 6.21595764 90.10549927 6.22659302 C88.40199094 6.22699478 86.69914057 6.12191026 85 6 C84.01 5.01 84.01 5.01 83 4 C83.33 3.34 83.66 2.68 84 2 C56.28 1.67 28.56 1.34 0 1 C0 0.67 0 0.34 0 0 Z " fill="#89AD7A" transform="translate(46,82)"/>
<path d="M0 0 C0.33 0 0.66 0 1 0 C1 18.81 1 37.62 1 57 C-7.71051213 57.62217944 -16.08376523 58.14232582 -24.76171875 57.984375 C-25.80020462 57.96787903 -26.83869049 57.95138306 -27.90864563 57.93438721 C-30.07221453 57.89731406 -32.23572763 57.85683197 -34.39916992 57.81298828 C-37.71852466 57.74940572 -41.03771463 57.70846191 -44.35742188 57.66796875 C-46.47138003 57.62898225 -48.5853142 57.58866704 -50.69921875 57.546875 C-51.68975754 57.53734802 -52.68029633 57.52782104 -53.70085144 57.51800537 C-54.61643326 57.49498352 -55.53201508 57.47196167 -56.4753418 57.44824219 C-57.27916794 57.43412292 -58.08299408 57.42000366 -58.91117859 57.40545654 C-61.48276109 56.9062923 -62.28499339 55.91598852 -64 54 C-66.01792826 53.5005539 -66.01792826 53.5005539 -68.23046875 53.48828125 C-69.03291016 53.45283203 -69.83535156 53.41738281 -70.66210938 53.38085938 C-71.49548828 53.35830078 -72.32886719 53.33574219 -73.1875 53.3125 C-74.03248047 53.27833984 -74.87746094 53.24417969 -75.74804688 53.20898438 C-77.83156649 53.12658529 -79.91576216 53.06161355 -82 53 C-82 52.67 -82 52.34 -82 52 C-59.23 52 -36.46 52 -13 52 C-12.67 50.02 -12.34 48.04 -12 46 C-10.1875 44.125 -10.1875 44.125 -8 43 C-6.68 43 -5.36 43 -4 43 C-4.01571045 42.16227051 -4.0314209 41.32454102 -4.04760742 40.46142578 C-4.09870007 37.35663123 -4.13633234 34.25205069 -4.16479492 31.14697266 C-4.18732251 29.14080626 -4.2254357 27.13483474 -4.26367188 25.12890625 C-4.27333984 23.87207031 -4.28300781 22.61523438 -4.29296875 21.3203125 C-4.3086792 20.15773926 -4.32438965 18.99516602 -4.34057617 17.79736328 C-4.22818604 16.8742334 -4.1157959 15.95110352 -4 15 C-3.01 14.34 -2.02 13.68 -1 13 C-0.41407366 9.88389446 -0.41407366 9.88389446 -0.3125 6.375 C-0.24675781 5.18648438 -0.18101562 3.99796875 -0.11328125 2.7734375 C-0.07589844 1.85820313 -0.03851563 0.94296875 0 0 Z " fill="#548444" transform="translate(176,85)"/>
<path d="M0 0 C1.65 0 3.3 0 5 0 C5.33 1.32 5.66 2.64 6 4 C7.65 4 9.3 4 11 4 C10.67 3.34 10.34 2.68 10 2 C18.90428212 3.52644836 18.90428212 3.52644836 21.8125 7.4375 C23.9015794 13.70473821 24.1657804 20.18562893 21.4375 26.3125 C18.46777513 31.42294527 14.38267188 34.88470678 9.0625 37.375 C5.26290234 38.15042809 1.87425303 38.13359493 -2 38 C0.83430453 34.7457985 2.68607774 33.4793247 7 33 C7 31.35 7 29.7 7 28 C7.99 28.33 8.98 28.66 10 29 C10.33 28.34 10.66 27.68 11 27 C11.99 26.67 12.98 26.34 14 26 C13.76696223 22.62095231 13.64413821 20.88499724 12 18 C8.21156225 15.47789242 4.21271639 13.70054607 0 12 C0.33 10.68 0.66 9.36 1 8 C4.37705625 8.53725895 7.696686 9.11064623 11 10 C11 9.01 11 8.02 11 7 C6.40042608 5.32742766 3.03325251 4.14887104 -1.6875 6.125 C-4.30328634 7.86446787 -4.30328634 7.86446787 -4.8125 11.1875 C-4.9053125 12.5796875 -4.9053125 12.5796875 -5 14 C-1.46588679 16.12046792 1.94393835 16.53199289 6 17 C6.79953138 20.28696233 7.09658936 21.71023192 6 25 C1.91621717 24.25749403 -2.01939223 23.17076699 -6 22 C-5.67 23.65 -5.34 25.3 -5 27 C-6.5 25.75 -6.5 25.75 -8 24 C-8 22.68 -8 21.36 -8 20 C-6.02 19.67 -4.04 19.34 -2 19 C-2.804375 18.525625 -3.60875 18.05125 -4.4375 17.5625 C-7 16 -7 16 -8 15 C-8.375 12.25 -8.375 12.25 -8 9 C-5.6875 6.125 -5.6875 6.125 -3 4 C-2.01 4 -1.02 4 0 4 C0 2.68 0 1.36 0 0 Z " fill="#58823E" transform="translate(110,96)"/>
<path d="M0 0 C27.72 0 55.44 0 84 0 C83.34 0.33 82.68 0.66 82 1 C82.495 2.98 82.495 2.98 83 5 C59.9 5 36.8 5 13 5 C12.67 7.31 12.34 9.62 12 12 C9 14 9 14 5 14 C5 14.66 5 15.32 5 16 C4.01 16.33 3.02 16.66 2 17 C1.34 16.67 0.68 16.34 0 16 C0 10.72 0 5.44 0 0 Z " fill="#538341" transform="translate(48,83)"/>
<path d="M0 0 C1.0971936 0.00290039 1.0971936 0.00290039 2.21655273 0.00585938 C10.97036953 0.07233705 19.70205562 0.58802428 28.4375 1.125 C28.4375 1.785 28.4375 2.445 28.4375 3.125 C31.65653085 4.73451543 35.18588832 4.36734748 38.7265625 4.44140625 C39.95419815 4.4725779 39.95419815 4.4725779 41.20663452 4.50437927 C43.82516966 4.56984812 46.44380639 4.62874726 49.0625 4.6875 C50.83594807 4.73068776 52.60938581 4.77430214 54.3828125 4.81835938 C58.73427046 4.92552676 63.08583077 5.02680169 67.4375 5.125 C67.4375 5.455 67.4375 5.785 67.4375 6.125 C59.58602908 6.17195455 51.73459286 6.20718197 43.88301563 6.22862434 C40.23470306 6.23893091 36.58648857 6.25283991 32.93823242 6.27587891 C5.07051677 6.44677426 5.07051677 6.44677426 -7.98828125 5.3046875 C-8.84697311 5.2350882 -9.70566498 5.16548889 -10.59037781 5.09378052 C-12.92700195 4.85107422 -12.92700195 4.85107422 -16.5625 4.125 C-17.2225 3.135 -17.8825 2.145 -18.5625 1.125 C-17.49 1.145625 -16.4175 1.16625 -15.3125 1.1875 C-11.85918914 1.28934937 -11.85918914 1.28934937 -9.80078125 0.62890625 C-6.54636154 -0.10376416 -3.31773601 -0.02130901 0 0 Z " fill="#769E67" transform="translate(84.5625,136.875)"/>
<path d="M0 0 C22.77 0 45.54 0 69 0 C68.34 0.66 67.68 1.32 67 2 C64.875 1.625 64.875 1.625 63 1 C61.88214887 3.11785113 61.88214887 3.11785113 61 6 C55.35787764 5.93120753 49.7165024 5.84328265 44.07495117 5.73754883 C42.15543902 5.7042775 40.23582852 5.67625246 38.31616211 5.65356445 C35.55800428 5.62005879 32.80074957 5.56774597 30.04296875 5.51171875 C28.75376778 5.50213387 28.75376778 5.50213387 27.43852234 5.49235535 C26.63791885 5.47256119 25.83731537 5.45276703 25.01245117 5.43237305 C24.3085173 5.42126999 23.60458344 5.41016693 22.87931824 5.39872742 C20.47362227 4.88832055 19.63295486 3.78298821 18 2 C15.98207174 1.5005539 15.98207174 1.5005539 13.76953125 1.48828125 C12.56586914 1.43510742 12.56586914 1.43510742 11.33789062 1.38085938 C10.50451172 1.35830078 9.67113281 1.33574219 8.8125 1.3125 C7.5450293 1.26125977 7.5450293 1.26125977 6.25195312 1.20898438 C4.16843351 1.12658529 2.08423784 1.06161355 0 1 C0 0.67 0 0.34 0 0 Z " fill="#50803F" transform="translate(94,137)"/>
<path d="M0 0 C1.65 0 3.3 0 5 0 C5.33 1.32 5.66 2.64 6 4 C6.763125 4.0825 7.52625 4.165 8.3125 4.25 C11.54715191 5.15269355 12.35099265 6.13593461 14 9 C14 9.66 14 10.32 14 11 C12.56260487 11.02712066 11.12506137 11.04645067 9.6875 11.0625 C8.48673828 11.07990234 8.48673828 11.07990234 7.26171875 11.09765625 C5 11 5 11 2 10 C2 10.66 2 11.32 2 12 C3.32 12.33 4.64 12.66 6 13 C4.35 13 2.7 13 1 13 C0.67 11.68 0.34 10.36 0 9 C4.29299643 7.73735399 6.87831311 8.37049588 11 10 C11 9.01 11 8.02 11 7 C6.40042608 5.32742766 3.03325251 4.14887104 -1.6875 6.125 C-4.30328634 7.86446787 -4.30328634 7.86446787 -4.8125 11.1875 C-4.9053125 12.5796875 -4.9053125 12.5796875 -5 14 C-1.46588679 16.12046792 1.94393835 16.53199289 6 17 C6.79953138 20.28696233 7.09658936 21.71023192 6 25 C1.91621717 24.25749403 -2.01939223 23.17076699 -6 22 C-5.67 23.65 -5.34 25.3 -5 27 C-6.5 25.75 -6.5 25.75 -8 24 C-8 22.68 -8 21.36 -8 20 C-6.02 19.67 -4.04 19.34 -2 19 C-2.804375 18.525625 -3.60875 18.05125 -4.4375 17.5625 C-7 16 -7 16 -8 15 C-8.375 12.25 -8.375 12.25 -8 9 C-5.6875 6.125 -5.6875 6.125 -3 4 C-2.01 4 -1.02 4 0 4 C0 2.68 0 1.36 0 0 Z " fill="#898C71" transform="translate(110,96)"/>
<path d="M0 0 C1 2 2 4 3 6 C3.66 5.67 4.32 5.34 5 5 C9.70491803 7.40983607 9.70491803 7.40983607 11 10 C11.66 10 12.32 10 13 10 C13.66 9.01 14.32 8.02 15 7 C16.98320018 5.96708324 18.98347806 4.9662501 21 4 C21.66 3.34 22.32 2.68 23 2 C23.33 3.32 23.66 4.64 24 6 C19.25 9 19.25 9 17 9 C16.95875 9.598125 16.9175 10.19625 16.875 10.8125 C15.55453314 14.11366715 13.14712081 14.62313465 10 16 C9.67 16.33 9.34 16.66 9 17 C2.46259623 16.8665836 -1.10984232 14.1534586 -6 10 C-5.34 9.67 -4.68 9.34 -4 9 C-2.36041868 6.13073269 -1.19616032 3.07584082 0 0 Z " fill="#608843" transform="translate(101,116)"/>
<path d="M0 0 C33.66 0 67.32 0 102 0 C100 2 100 2 98.16500854 2.20254517 C97.42332428 2.18033905 96.68164001 2.15813293 95.91748047 2.13525391 C94.65639969 2.10499619 94.65639969 2.10499619 93.36984253 2.0741272 C92.00727829 2.02583267 92.00727829 2.02583267 90.6171875 1.9765625 C89.68778351 1.95153656 88.75837952 1.92651062 87.80081177 1.90072632 C84.82517739 1.81839355 81.85019369 1.72185562 78.875 1.625 C76.86070387 1.566774 74.84638086 1.50947044 72.83203125 1.453125 C67.88764495 1.31279498 62.94379634 1.15972168 58 1 C58.495 2.98 58.495 2.98 59 5 C56.54137599 5.05383848 54.0839245 5.09359038 51.625 5.125 C50.57699219 5.15013672 50.57699219 5.15013672 49.5078125 5.17578125 C47.67102514 5.19344267 45.83398037 5.10303261 44 5 C43.34 4.34 42.68 3.68 42 3 C42.33 2.67 42.66 2.34 43 2 C29.14 1.67 15.28 1.34 1 1 C1 2.65 1 4.3 1 6 C0.34 5.67 -0.32 5.34 -1 5 C-0.67 3.35 -0.34 1.7 0 0 Z " fill="#ADDA97" transform="translate(61,88)"/>
<path d="M0 0 C14.99990733 -0.33987705 29.3007169 -0.19054207 44 3 C44 3.66 44 4.32 44 5 C40.22931168 5.086985 36.45888068 5.14038579 32.6875 5.1875 C31.61564453 5.21263672 30.54378906 5.23777344 29.43945312 5.26367188 C28.41142578 5.27333984 27.38339844 5.28300781 26.32421875 5.29296875 C25.37635498 5.3086792 24.42849121 5.32438965 23.4519043 5.34057617 C20.517245 4.93294402 19.97563244 4.08883376 18 2 C15.98207174 1.5005539 15.98207174 1.5005539 13.76953125 1.48828125 C12.56586914 1.43510742 12.56586914 1.43510742 11.33789062 1.38085938 C10.50451172 1.35830078 9.67113281 1.33574219 8.8125 1.3125 C7.5450293 1.26125977 7.5450293 1.26125977 6.25195312 1.20898438 C4.16843351 1.12658529 2.08423784 1.06161355 0 1 C0 0.67 0 0.34 0 0 Z " fill="#487937" transform="translate(94,137)"/>
<path d="M0 0 C0.66 1.32 1.32 2.64 2 4 C-2.75 7 -2.75 7 -5 7 C-5.04125 7.598125 -5.0825 8.19625 -5.125 8.8125 C-6 11 -6 11 -8.8125 12.6875 C-11.24406723 13.68873357 -13.43085105 14.50593289 -16 15 C-15.67 13.35 -15.34 11.7 -15 10 C-19.10223585 8.98459888 -19.10223585 8.98459888 -23 10 C-22.67 8.68 -22.34 7.36 -22 6 C-17.545 5.505 -17.545 5.505 -13 5 C-12.01 6.485 -12.01 6.485 -11 8 C-10.34 8 -9.68 8 -9 8 C-8.34 7.01 -7.68 6.02 -7 5 C-5.00819591 3.98377342 -3.00847365 2.98287008 -1 2 C-0.67 1.34 -0.34 0.68 0 0 Z " fill="#5C8043" transform="translate(123,118)"/>
<path d="M0 0 C1.17046875 0.03609375 2.3409375 0.0721875 3.546875 0.109375 C4.43890625 0.15578125 5.3309375 0.2021875 6.25 0.25 C6.25 0.58 6.25 0.91 6.25 1.25 C3.94 1.58 1.63 1.91 -0.75 2.25 C4.2 2.25 9.15 2.25 14.25 2.25 C9.11304258 4.81847871 5.44196331 5.58700965 -0.25 5.9375 C-1.42755859 6.02741211 -1.42755859 6.02741211 -2.62890625 6.11914062 C-4.66574908 6.24666166 -6.70917869 6.25622202 -8.75 6.25 C-9.41 5.59 -10.07 4.93 -10.75 4.25 C-7.43152371 0.07726249 -5.22729025 -0.20909161 0 0 Z " fill="#628E44" transform="translate(139.75,81.75)"/>
<path d="M0 0 C1.65 0 3.3 0 5 0 C5.33 1.32 5.66 2.64 6 4 C6.763125 4.0825 7.52625 4.165 8.3125 4.25 C11.54715191 5.15269355 12.35099265 6.13593461 14 9 C14 9.66 14 10.32 14 11 C12.56260487 11.02712066 11.12506137 11.04645067 9.6875 11.0625 C8.48673828 11.07990234 8.48673828 11.07990234 7.26171875 11.09765625 C5 11 5 11 2 10 C2 10.66 2 11.32 2 12 C3.32 12.33 4.64 12.66 6 13 C4.35 13 2.7 13 1 13 C0.67 11.68 0.34 10.36 0 9 C4.29299643 7.73735399 6.87831311 8.37049588 11 10 C11 9.01 11 8.02 11 7 C7.38026598 5.68373308 4.90432869 5 1 5 C0.01 4.67 -0.98 4.34 -2 4 C-1.34 4 -0.68 4 0 4 C0 2.68 0 1.36 0 0 Z " fill="#E0EBD3" transform="translate(110,96)"/>
<path d="M0 0 C2.5 0.25 2.5 0.25 4.5 2.25 C4.75 4.75 4.75 4.75 4.5 7.25 C2.5 9.25 2.5 9.25 0 9.5 C-2.5 9.25 -2.5 9.25 -4.5 7.25 C-4.75 4.75 -4.75 4.75 -4.5 2.25 C-2.5 0.25 -2.5 0.25 0 0 Z " fill="#548543" transform="translate(150.5,107.75)"/>
<path d="M0 0 C0.33 0.66 0.66 1.32 1 2 C-1.93774463 2.05390357 -4.87450232 2.0936255 -7.8125 2.125 C-8.64587891 2.14175781 -9.47925781 2.15851563 -10.33789062 2.17578125 C-11.14033203 2.18222656 -11.94277344 2.18867187 -12.76953125 2.1953125 C-13.87711792 2.21102295 -13.87711792 2.21102295 -15.00708008 2.22705078 C-17 2 -17 2 -20 0 C-5.62162162 -1.40540541 -5.62162162 -1.40540541 0 0 Z M1 3 C1 3.66 1 4.32 1 5 C-5.27 5 -11.54 5 -18 5 C-18 4.67 -18 4.34 -18 4 C-16.95199219 3.90912109 -16.95199219 3.90912109 -15.8828125 3.81640625 C-14.97273437 3.73261719 -14.06265625 3.64882812 -13.125 3.5625 C-12.22007812 3.48128906 -11.31515625 3.40007812 -10.3828125 3.31640625 C-2.99087591 2.33485401 -2.99087591 2.33485401 1 3 Z " fill="#4F7B2D" transform="translate(156,83)"/>
<path d="M0 0 C2.31 0.33 4.62 0.66 7 1 C7.125 3.875 7.125 3.875 7 7 C6.34 7.66 5.68 8.32 5 9 C1.875 8.625 1.875 8.625 -1 8 C-1.625 5.6875 -1.625 5.6875 -2 3 C-1.34 2.01 -0.68 1.02 0 0 Z " fill="#578745" transform="translate(71,108)"/>
<path d="M0 0 C4.62 0 9.24 0 14 0 C11.07735566 1.46132217 9.07536854 2.34099246 6 3 C8.31 3.33 10.62 3.66 13 4 C10.08175756 5.66674321 8.02405621 6.2432008 4.671875 6.1953125 C3.47304687 6.18564453 3.47304687 6.18564453 2.25 6.17578125 C1.425 6.15902344 0.6 6.14226562 -0.25 6.125 C-1.09046875 6.11597656 -1.9309375 6.10695312 -2.796875 6.09765625 C-4.86470604 6.07415817 -6.93238995 6.03828908 -9 6 C-6 4 -6 4 -2 4 C-1.34 2.68 -0.68 1.36 0 0 Z " fill="#406632" transform="translate(63,137)"/>
<path d="M0 0 C1.93816735 0.1141866 3.87555099 0.24173423 5.8125 0.375 C6.89144531 0.44460937 7.97039062 0.51421875 9.08203125 0.5859375 C12 1 12 1 15 3 C14.34 4.32 13.68 5.64 13 7 C12.67 6.67 12.34 6.34 12 6 C10.906875 6.04125 9.81375 6.0825 8.6875 6.125 C4.82520197 5.99407464 3.62543997 5.72641843 1 3 C0.67 2.01 0.34 1.02 0 0 Z " fill="#617E49" transform="translate(112,106)"/>
<path d="M0 0 C0.99 0.66 1.98 1.32 3 2 C2.0409375 2.309375 2.0409375 2.309375 1.0625 2.625 C-1.34925077 3.89538209 -1.34925077 3.89538209 -1.75 7.125 C-1.8325 8.07375 -1.915 9.0225 -2 10 C-1.195625 10.45375 -0.39125 10.9075 0.4375 11.375 C3 13 3 13 4 15 C-1.36170213 14.40425532 -1.36170213 14.40425532 -3.875 12.8125 C-5.61514411 10.00893449 -5.51732864 8.23330397 -5 5 C-2.5 2.125 -2.5 2.125 0 0 Z " fill="#909679" transform="translate(107,100)"/>
<path d="M0 0 C-0.66 1.98 -1.32 3.96 -2 6 C-7.75 4.375 -7.75 4.375 -10 1 C-6.1496895 -1.56687367 -4.41430237 -0.83288724 0 0 Z " fill="#588841" transform="translate(109,127)"/>
<path d="M0 0 C0.66 1.32 1.32 2.64 2 4 C-2.75 7 -2.75 7 -5 7 C-5.33 8.32 -5.66 9.64 -6 11 C-7.98 11 -9.96 11 -12 11 C-11.54625 10.566875 -11.0925 10.13375 -10.625 9.6875 C-8.79975666 7.89201658 -8.79975666 7.89201658 -7 5 C-5.00819591 3.98377342 -3.00847365 2.98287008 -1 2 C-0.67 1.34 -0.34 0.68 0 0 Z " fill="#2C3B18" transform="translate(123,118)"/>
<path d="M0 0 C0.66 0.66 1.32 1.32 2 2 C1.01 3.485 1.01 3.485 0 5 C0 3.35 0 1.7 0 0 Z M0 5 C-0.33 6.65 -0.66 8.3 -1 10 C-3.64 10 -6.28 10 -9 10 C-4.16129032 5 -4.16129032 5 0 5 Z " fill="#638A4C" transform="translate(117,124)"/>
<path d="M0 0 C0.66 1.32 1.32 2.64 2 4 C0.56260487 4.02712066 -0.87493863 4.04645067 -2.3125 4.0625 C-3.51326172 4.07990234 -3.51326172 4.07990234 -4.73828125 4.09765625 C-7 4 -7 4 -10 3 C-10 3.66 -10 4.32 -10 5 C-8.68 5.33 -7.36 5.66 -6 6 C-7.65 6 -9.3 6 -11 6 C-11.33 4.68 -11.66 3.36 -12 2 C-7.70700357 0.73735399 -5.12168689 1.37049588 -1 3 C-0.67 2.01 -0.34 1.02 0 0 Z " fill="#C7D1BF" transform="translate(122,103)"/>
<path d="M0 0 C0.66 0.66 1.32 1.32 2 2 C1.625 5.125 1.625 5.125 1 8 C-2.34373475 7.44271087 -5.03312999 6.64826111 -8 5 C-6.865625 4.731875 -5.73125 4.46375 -4.5625 4.1875 C-3.386875 3.795625 -2.21125 3.40375 -1 3 C-0.67 2.01 -0.34 1.02 0 0 Z " fill="#4E523E" transform="translate(115,113)"/>
<path d="M0 0 C1.32 0.66 2.64 1.32 4 2 C3.1875 4.4375 3.1875 4.4375 2 7 C1.01 7.33 0.02 7.66 -1 8 C-2 7 -2 7 -2.1875 4.5625 C-2 2 -2 2 0 0 Z " fill="#5D8C4B" transform="translate(148,108)"/>
<path d="M0 0 C2.64 0.33 5.28 0.66 8 1 C8 1.66 8 2.32 8 3 C8.66 3.66 9.32 4.32 10 5 C7.75 5.6875 7.75 5.6875 5 6 C1.87943304 4.26635169 1.14668209 3.44004627 0 0 Z " fill="#8F9884" transform="translate(112,106)"/>
<path d="M0 0 C0.763125 0.20625 1.52625 0.4125 2.3125 0.625 C1.3225 1.285 0.3325 1.945 -0.6875 2.625 C-1.7084375 3.676875 -1.7084375 3.676875 -2.75 4.75 C-4.6875 6.625 -4.6875 6.625 -6.6875 6.625 C-6.375 4.25 -6.375 4.25 -5.6875 1.625 C-2.6875 -0.375 -2.6875 -0.375 0 0 Z " fill="#618046" transform="translate(107.6875,98.375)"/>
<path d="M0 0 C0 0.66 0 1.32 0 2 C-0.93972656 2.09087891 -0.93972656 2.09087891 -1.8984375 2.18359375 C-2.71570313 2.26738281 -3.53296875 2.35117188 -4.375 2.4375 C-5.18710938 2.51871094 -5.99921875 2.59992188 -6.8359375 2.68359375 C-9.04272805 2.89090114 -9.04272805 2.89090114 -11 4 C-10.67 2.68 -10.34 1.36 -10 0 C-3.375 -1.125 -3.375 -1.125 0 0 Z " fill="#55743F" transform="translate(111,124)"/>
<path d="M0 0 C0.33 0.66 0.66 1.32 1 2 C1.99 2 2.98 2 4 2 C3.67 3.32 3.34 4.64 3 6 C0 5 0 5 -1.1875 2.9375 C-1.5896875 1.9784375 -1.5896875 1.9784375 -2 1 C-1.34 0.67 -0.68 0.34 0 0 Z " fill="#61814B" transform="translate(123,100)"/>
<path d="M0 0 C0 0.66 0 1.32 0 2 C-4.75 3.125 -4.75 3.125 -7 2 C-7 1.34 -7 0.68 -7 0 C-3.98968256 -0.93423645 -3.13349732 -1.04449911 0 0 Z " fill="#647B50" transform="translate(108,122)"/>
<path d="M0 0 C0.99 0.66 1.98 1.32 3 2 C2.0409375 2.433125 2.0409375 2.433125 1.0625 2.875 C-1.15206079 3.82823451 -1.15206079 3.82823451 -2 6 C-2.66 6 -3.32 6 -4 6 C-3.6875 4.125 -3.6875 4.125 -3 2 C-2.01 1.34 -1.02 0.68 0 0 Z " fill="#B2BA98" transform="translate(107,100)"/>
</svg>
